<?xml version="1.0" encoding="UTF-8"?>
<!DOCTYPE svg PUBLIC "-//W3C//DTD SVG 1.1//EN" "http://www.w3.org/Graphics/SVG/1.1/DTD/svg11.dtd">
<svg xmlns="http://www.w3.org/2000/svg" version="1.1" width="512px" height="512px" style="shape-rendering:geometricPrecision; text-rendering:geometricPrecision; image-rendering:optimizeQuality; fill-rule:evenodd; clip-rule:evenodd" xmlns:xlink="http://www.w3.org/1999/xlink">
<g><path style="opacity:0.996" fill="#2675e2" d="M 120.5,41.5 C 210.501,41.3333 300.501,41.5 390.5,42C 424.735,45.692 448.902,63.192 463,94.5C 466.101,102.569 468.101,110.902 469,119.5C 469.971,184.191 469.638,248.857 468,313.5C 459.274,352.226 435.44,375.393 396.5,383C 345.5,383.333 294.5,383.667 243.5,384C 216.5,411 189.5,438 162.5,465C 150.769,472.03 140.269,470.53 131,460.5C 129.561,458.725 128.561,456.725 128,454.5C 127.5,430.836 127.333,407.169 127.5,383.5C 85.1502,381.814 57.4835,360.814 44.5,320.5C 43.2586,315.569 42.4253,310.569 42,305.5C 41.3333,243.5 41.3333,181.5 42,119.5C 46.0928,85.7511 63.5928,61.9178 94.5,48C 103.066,44.86 111.733,42.6934 120.5,41.5 Z"/></g>
<g><path style="opacity:1" fill="#ebe9e9" d="M 153.5,180.5 C 172.128,179.726 184.628,188.059 191,205.5C 193.38,225.108 185.213,237.942 166.5,244C 146.892,246.38 134.059,238.214 128,219.5C 125.969,199.551 134.469,186.551 153.5,180.5 Z"/></g>
<g><path style="opacity:1" fill="#ebe9e9" d="M 249.5,180.5 C 268.128,179.726 280.628,188.059 287,205.5C 289.38,225.108 281.213,237.942 262.5,244C 242.892,246.38 230.059,238.214 224,219.5C 221.969,199.551 230.469,186.551 249.5,180.5 Z"/></g>
<g><path style="opacity:1" fill="#ebe9e9" d="M 345.5,180.5 C 364.128,179.726 376.628,188.059 383,205.5C 385.38,225.108 377.213,237.942 358.5,244C 338.892,246.38 326.059,238.214 320,219.5C 317.969,199.551 326.469,186.551 345.5,180.5 Z"/></g>
</svg>
